<svg id="Layer_1" data-name="Layer 1" xmlns="http://www.w3.org/2000/svg" viewBox="0 0 273.22 303.45"><title>logo</title><path d="M174.08,423.63H174l-9.65,2.5-4.65-2.67-.1,0,4.66,2.67,9.81-2.53a8.77,8.77,0,0,1,2.12-.3A8.77,8.77,0,0,0,174.08,423.63Z" transform="translate(-60.04 -231.33)" style="fill:none"/><path d="M204,422.41l-.14.17-3,7.67.11,0,3.11-7.82Z" transform="translate(-60.04 -231.33)" style="fill:none"/><path d="M158.64,307.41a65.21,65.21,0,0,0,5.42,7.18,62.69,62.69,0,0,1-5.38-7.18Z" transform="translate(-60.04 -231.33)" style="fill:none"/><path d="M168.66,416.63l0,0a14.86,14.86,0,0,1-6.7,6.12A14.92,14.92,0,0,0,168.66,416.63Z" transform="translate(-60.04 -231.33)" style="fill:none"/><path d="M177.75,414.8l0,0-.47.14C177,415,177.29,414.92,177.75,414.8Z" transform="translate(-60.04 -231.33)" style="fill:none"/><path d="M184.61,308.85s-8.25-1.89-19.14-11C165.46,297.89,166.34,308.68,184.61,308.85Z" transform="translate(-60.04 -231.33)" style="fill:none"/><path d="M177.81,414.9h0C177.72,414.92,177.7,414.93,177.81,414.9Z" transform="translate(-60.04 -231.33)" style="fill:none"/><polygon points="122.98 198.78 122.98 198.77 119.54 193.54 122.98 198.78" style="fill:none"/><path d="M214.49,375.47a18.6,18.6,0,0,0-2.31-1.78A20.06,20.06,0,0,1,214.49,375.47Z" transform="translate(-60.04 -231.33)" style="fill:#fff"/><path d="M218,394.53a9.05,9.05,0,0,1-3.23.81A7.7,7.7,0,0,0,218,394.53Z" transform="translate(-60.04 -231.33)" style="fill:#fff"/><path d="M216.47,392.08a4.67,4.67,0,0,0,.8-.12A5,5,0,0,1,216.47,392.08Z" transform="translate(-60.04 -231.33)" style="fill:#fff"/><path d="M122.06,414.17l-1.23.19,2.23,3a21.23,21.23,0,0,0,3.75-8.67l-2.19.38s3.72-5,5-9.64l-2.95.72c4.49-5.67,5.93-14.14,5.93-14.14a30.58,30.58,0,0,0,5.93,14.1l-2.9-.76s.78,3.71,5.09,9.55l-2.27-.29a12.89,12.89,0,0,0,2.36,6,14,14,0,0,0,2.53-6.78l-.93.21a22.64,22.64,0,0,0,3-8.21,39.35,39.35,0,0,0,3,8.21l-.93-.21a25.2,25.2,0,0,0,2.61,6.9l-1.14-.08.8,2.78a8.29,8.29,0,0,0,1.68-5.13l-.93.21a34.22,34.22,0,0,0,2.95-8.21s1.05,5.2,3.3,8.37l-1.19-.37a5.86,5.86,0,0,0,1.18,3.16s4.58-2.69,8.23-9.79a7,7,0,0,1-1.9-.58c-2.57-1.13-7.17-4.41-10.06-13.8-4.19-13.6-1.19-19.1,4.46-22.06,0,0,0-.25,0-.69,0-.82,0-2.33.24-4.17a98.24,98.24,0,0,0-39.33,44.07A13.76,13.76,0,0,0,122.06,414.17Z" transform="translate(-60.04 -231.33)" style="fill:#fff"/><path d="M132.44,443.61a49.06,49.06,0,0,1,14.25-10.45l.79-.93a6.71,6.71,0,0,1,4.49-2.88l12.31-3.18-4.66-2.67.1,0h0a13.39,13.39,0,0,0,1.59-.49l.61-.26a14.86,14.86,0,0,0,6.7-6.12l0,0,0-.08a8.46,8.46,0,0,0,9.11-1.66c-.11,0-.09,0,0,0h0a9.87,9.87,0,0,1-10.26-3.26,11.14,11.14,0,0,1-.72-1c-7.61,13-19.34,12.77-19.34,12.77l4.17,1.83s-7.87,2.24-13.32,7.57a14.38,14.38,0,0,1-11.73,4.24,5.67,5.67,0,0,0,3.25,4c-4.1,3.79-11,6.06-14.15,7l2.4,3.67A27.38,27.38,0,0,0,132.44,443.61Z" transform="translate(-60.04 -231.33)" style="fill:#717073"/><path d="M118.12,451.71l1.82,2.79,2.88,6.66,23.87-28a49.06,49.06,0,0,0-14.25,10.45A27.38,27.38,0,0,1,118.12,451.71Z" transform="translate(-60.04 -231.33)" style="fill:#b0b7bc"/><path d="M177.81,414.9a8.46,8.46,0,0,1-9.11,1.66l0,.08a14.92,14.92,0,0,1-6.75,6.08l-.61.26a13.39,13.39,0,0,1-1.59.49h0l4.65,2.67,9.65-2.5h.06a8.77,8.77,0,0,1,2.13-.3,3.87,3.87,0,0,1,3.12,1.19,1.83,1.83,0,0,1,.25.35L183,430.1l4-9.15s-3.4,0-9.16-6.07h0Z" transform="translate(-60.04 -231.33)" style="fill:#b0b7bc"/><path d="M156.84,391.4c3.9,13.26,12.95,11.69,14.83,11.21l.32-.09h0a17.34,17.34,0,0,0,4.71-1.77l.06,0c.84-.38,10.85-5.4,6.12-25.14a5.56,5.56,0,0,1,3.74-.31,4.06,4.06,0,0,1,2.49,2.91,35.68,35.68,0,0,1,.7,3.61c1.43.47,3.57,2,3.36,7.09-.27,6.43-1.58,13.43-8.81,14-7.05.55-8.16,2-8.88,2.66a11.66,11.66,0,0,1-6,2.44c2.9,5.38,7.92,3.34,10.53,2.28a9,9,0,0,1,5.22-.69c5.82-.25,6.81-1.75,8.46-2.9,3-2.1,4.33-4.09,4.85-6.71.7-3.5,0-8.15,0-15.8,0-15.17,12-11.57,13.65-10.47a18.6,18.6,0,0,1,2.31,1.78c2.3,2.09,4.25,5.09,5.79,10.88,1.88,5-.15,7.19-2.24,8.19a7.7,7.7,0,0,1-3.23.81c-12,0-10.77,8.34-10.77,8.34,3.75-4.71,13.59-4.88,13.59-4.88s11.47-2.11,7.49-14.13a33.75,33.75,0,0,0-4.31-8.25,30.43,30.43,0,0,0-4.82-5.64c-7.19-6.39-13.6-3.42-17.57,0a24.13,24.13,0,0,0-4.23,4.75,23.09,23.09,0,0,0-2.13-4.75,11.53,11.53,0,0,0-4.27-4.31c-7.1-3.87-15.82,3.8-15.82,3.8a4.15,4.15,0,0,1,1.47-4l.08-.09.12-.13c-1-2.68-2.38-9.28,3.5-16.78-1.27-1-.79-4,.06-6.87a49.32,49.32,0,0,1,2-5.44l.22-.49v0a35.69,35.69,0,0,1,9.76-12.32l-1,3.32s2.28-2.35,7.69-4c-1.34-4.72,4.16-8.39,6.24-9.33,2.8-1.25,8.83-4.38,8.83-4.38a56.81,56.81,0,0,1-7.08-.07c-6.35,2.31-18.15,8.61-27.84,25.07a23.75,23.75,0,0,1,1.1-8.83A36.69,36.69,0,0,1,170,331l-4,4.49,2.57,10.77,3.32-7.87s1.51,11.67-3.29,12.37c-6,.87-7.66,10.59-8.11,17.27-.24,3.58-.13,6.29-.13,6.29a3.8,3.8,0,0,1-2-2C156.89,373.55,152.48,376.56,156.84,391.4Zm16.43-26c0-.15-.06-.31-.09-.49C173.2,365.11,173.23,365.27,173.27,365.44Zm-7.86,6.72a56.19,56.19,0,0,0,7.07,26.39s-8.61,3.1-12.48-10.28S164,372.71,165.41,372.16Z" transform="translate(-60.04 -231.33)" style="fill:#b0b7bc"/><path d="M208.38,337.28l4.75-1.35s-.78,3.34-6.23,6.1h6.4s-3.82,4.5-12.16,4.92l.84,3.66s-25.6-8.37-23.57,12.06a16.41,16.41,0,0,1,8.42-1c1.05-4.61-1.18-9.38-1.18-9.38,4.86,3.61,5.47,9.93,5.47,9.93A14.64,14.64,0,0,0,192.18,351a18.1,18.1,0,0,1,2.22,3.18l7.08,2.21-1.94-4.76s3.35,3.35,6.31,4.5l.21-5.51s3.7,2.9,11.57,3.24c0,0-5.21-3.86-6.52-7.2l9.47,4.67-5.18-9.72,8.92-.93L213.71,332l3.5-1.29s-4.37-.93-12.84,1.68l6.94,0S211.2,334.18,208.38,337.28Z" transform="translate(-60.04 -231.33)" style="fill:#b0b7bc"/><path d="M173.65,366a13.2,13.2,0,0,1,4.76-3.33c-2-20.43,23.57-12.06,23.57-12.06l-.84-3.66c8.35-.42,12.16-4.92,12.16-4.92h-6.4c5.45-2.76,6.23-6.1,6.23-6.1l-4.75,1.35c2.82-3.09,2.95-4.84,2.95-4.84l-6.94,0a9.26,9.26,0,0,1,.72,2.95l2.31-.59a8.53,8.53,0,0,1-3.43,4.58,10.91,10.91,0,0,1-4.57,1.73l4,.76c-3.73,3.84-9.71,3.87-13.78,4.28a23.07,23.07,0,0,0-5.12,1.13,26.13,26.13,0,0,0-4.19,1.88,3.64,3.64,0,0,1-3.17.16l0,0C171.27,356.73,172.67,363.34,173.65,366Z" transform="translate(-60.04 -231.33)" style="fill:#717073"/><path d="M217.21,330.71l-3.5,1.29,10.61,8.64-8.92.93,5.18,9.72-9.47-4.67c1.31,3.34,6.52,7.2,6.52,7.2-7.88-.34-11.57-3.24-11.57-3.24l-.21,5.51c-3-1.15-6.31-4.5-6.31-4.5l1.94,4.76-7.08-2.21a20,20,0,0,1,2.41,10.37c4.24-2.9,4.63-6.48,4.63-6.48.82,2.56,4.29,6.4,4.29,6.4l.13-5.6,4.67,5.6a13.9,13.9,0,0,1,1.43-6.65c2.61,5.56,8.21,9.51,8.21,9.51a29.34,29.34,0,0,1-2.86-10.73c3.22-.6,6.82,2.69,6.82,2.69a13.82,13.82,0,0,0,.3-9.26l6.19,3.7c-.58-5.09-4.33-10.6-4.33-10.6l8.21.84-16.62-11.49,6-2.19c-7.57-4.6-19.48,2.15-19.48,2.15C212.84,329.78,217.21,330.71,217.21,330.71Z" transform="translate(-60.04 -231.33)" style="fill:#717073"/><path d="M189.23,324.15a35.69,35.69,0,0,0-9.76,12.32l.21,7.33,2.68-.11a22.24,22.24,0,0,1,4.22-13.23l-.08,4.08A18.84,18.84,0,0,1,197,325.71a7,7,0,0,1-1.14-2.26c-5.4,1.66-7.69,4-7.69,4Z" transform="translate(-60.04 -231.33)" style="fill:#fff"/><path d="M176.06,334.75c9.7-16.46,21.49-22.76,27.84-25.07-2.36-.12-4.36-.26-4.36-.26-1.44.19-5.82,2.6-5.82,2.6l-.49-3.48a35.55,35.55,0,0,0-7.34,7.64,39.3,39.3,0,0,0-3.41,5.57l-1.12-2.65a23.92,23.92,0,0,0-3.95,6.54l-.26.28A23.75,23.75,0,0,0,176.06,334.75Z" transform="translate(-60.04 -231.33)" style="fill:#717073"/><path d="M186.49,334.54l.08-4.08a22.24,22.24,0,0,0-4.22,13.23l2.19-.09h.34c.66-1.07,1.32-2.06,2-3,2.59-3.63,7.48-9.57,13.21-12l-.22-.19c-.58-.51-2.12-1.89-2.64-2.51l-.09-.11a.15.15,0,0,0-.07,0l0,0A18.84,18.84,0,0,0,186.49,334.54Z" transform="translate(-60.04 -231.33)" style="fill:#717073"/><path d="M204,403.68s-1.22-8.34,10.77-8.34a9.05,9.05,0,0,0,3.23-.81c2.1-1,4.12-3.22,2.24-8.19,1.1,4.12-1.6,5.29-3,5.61a4.67,4.67,0,0,1-.8.12c-5.53-.63-13.38.24-15.39,7.87,0,.13-.07.26-.1.4a15.11,15.11,0,0,1-7.92,10.38c13.4,9.13,24.07.49,24.07.49L212,409.57c11-1.39,14.9-6.27,14.9-6.27a11.38,11.38,0,0,1-8.31-3.35,6.76,6.76,0,0,1-.91-1.15S207.79,399,204,403.68Z" transform="translate(-60.04 -231.33)" style="fill:#717073"/><path d="M184.39,402.88c7.23-.57,8.54-7.56,8.81-14,.21-5.06-1.93-6.61-3.36-7.09.05.35.1.71.14,1.1.69,5.86.5,15.33-7.42,17.31l.19-.07a13.71,13.71,0,0,1-6,.6,17.34,17.34,0,0,1-4.71,1.77,4.37,4.37,0,0,1-3.41,3.36,13,13,0,0,0,.89,2.11,11.66,11.66,0,0,0,6-2.44C176.23,404.88,177.34,403.43,184.39,402.88Z" transform="translate(-60.04 -231.33)" style="fill:#717073"/><path d="M176.73,400.74l.06,0Z" transform="translate(-60.04 -231.33)" style="fill:#717073"/><path d="M172,402.52l-.32.09Z" transform="translate(-60.04 -231.33)" style="fill:#717073"/><path d="M172.48,398.55a56.19,56.19,0,0,1-7.07-26.39c-1.4.55-9.27,2.72-5.41,16.1S172.48,398.55,172.48,398.55Z" transform="translate(-60.04 -231.33)" style="fill:#717073"/><path d="M170,331c-1.29.76-2.55,1.45-3.61,2-1.74.93-3,1.52-3,1.52v9.89c.54,4.22,5.13,1.85,5.13,1.85L166,335.51Z" transform="translate(-60.04 -231.33)" style="fill:#fff"/><path d="M202.82,320.36c3.39,3.24,9.75-2.15,9.75-2.15l12.89-9.8c-3.17.65-10.56,1.22-10.56,1.22a32.23,32.23,0,0,1-9.55,5.77S199.91,317.58,202.82,320.36Z" transform="translate(-60.04 -231.33)" style="fill:#0069aa"/><path d="M232.78,313.34c-2.88-.56-10.39.13-12.84,7.1a98.12,98.12,0,0,0,12.84-1.21,62.08,62.08,0,0,0,12.84-3.34s-9.3-1.11-12.07-2.33A3.71,3.71,0,0,0,232.78,313.34Z" transform="translate(-60.04 -231.33)" style="fill:#717073"/><path d="M232.78,332.8c-1.59.32-3.23.71-4.92,1.19l3.6,2.7a43.25,43.25,0,0,1,15.21-1.23L242,339s8.86-.46,18.05,6.31H252.9s10,5.55,13.63,20.83a45.39,45.39,0,0,0-3.11-17.21L270,351s-1.89-7.26-10.36-11.88a29.12,29.12,0,0,0-7.78-2.85l8.37-1.77S249.31,329.5,232.78,332.8Z" transform="translate(-60.04 -231.33)" style="fill:#b0b7bc"/><path d="M252.9,345.27H260C250.82,338.5,242,339,242,339l4.71-3.49a43.25,43.25,0,0,0-15.21,1.23l1.32,1,1.84,1.38,11.29,8.47h-8.67a20.52,20.52,0,0,1,1.05,3.7s11.35-1.64,17.17,2.1l-3.32,1.3s10.93,5,14.39,11.45C262.91,350.82,252.9,345.27,252.9,345.27Z" transform="translate(-60.04 -231.33)" style="fill:#717073"/><path d="M239.81,267s0-6,4.67-6.44a60.15,60.15,0,0,0,7.09-8.18c.11-.56.15-.86.15-.86a22.37,22.37,0,0,0-3.71-6.7,28.25,28.25,0,0,0-1.93-2.26,14.21,14.21,0,0,1,.38,2.26,27.57,27.57,0,0,1-.11,6.09c-.73,5.9-2.5-5.58-2.5-5.58-.18-.16-.4-.34-.63-.52-1.52-1.19-3.79-2.64-3.79-2.64.17.91.31,1.79.42,2.64a24.73,24.73,0,0,1-.08,8.63c-1.12,4.31-2-3.4-2-3.4l-2.74-.46a59.31,59.31,0,0,1,.21,18.48A4,4,0,0,1,239.81,267Z" transform="translate(-60.04 -231.33)" style="fill:#fff"/><path d="M251.57,252.38a60.15,60.15,0,0,1-7.09,8.18c-4.63.46-4.67,6.44-4.67,6.44a4,4,0,0,0-4.58,1.06c-1,6.09-2.91,8.83-2.91,8.83-.83-1.52.36-3.74,0-5.93-.82-4.46-2.65-4.71-2.65-4.71-.39,12.86-4.84,18.1-4.84,18.1C246,275,250.74,256.57,251.57,252.38Z" transform="translate(-60.04 -231.33)" style="fill:#b0b7bc"/><path d="M131.93,292.5c3.91-10.52,6.92-8.33,6.92-8.33,3.54,19.86,13.68,25.46,13.68,25.46-9.92-18.36-8.75-33-8.75-33,4.33,10.76,8,6.19,8,6.19a91.53,91.53,0,0,0,3,18.64c0,.06,1.76,2.83,3.85,5.91h0a62.69,62.69,0,0,0,5.38,7.18c1.54-.2,3.12-.46,4.75-.8,0,0-16.31-9.14-7.57-32.49,0,0-3.53-1.57-6,6.1,0,0-.48-5,1.3-7.79a11.76,11.76,0,0,1-.67-6.57s-3.45,1.27-4.12,7.28c0,0-4.57,2.25-8.29-10.44,0,0-4,2.77-4.33,10.35,0,0-6.85-1.75-11-10,0,0-1.88,5.32-.4,13.32,1.22,6.56-.53,11-4.33,12.05C125.09,297.83,128.54,301.62,131.93,292.5Z" transform="translate(-60.04 -231.33)" style="fill:#fff"/><path d="M160.55,314.93c-.23-.41-.51-.93-.83-1.53a70.89,70.89,0,0,1-3.72-8c-.3-.8-.56-1.58-.76-2.33-.15-.54-.37-1.06-.45-1.55h0a91.53,91.53,0,0,1-3-18.64s-3.71,4.57-8-6.19c0,0-1.17,14.59,8.75,33,0,0-10.13-5.6-13.68-25.46,0,0-3-2.19-6.92,8.33-3.39,9.12-6.84,5.33-8.57,3.11a7.52,7.52,0,0,1-2.77.21S132.82,316.68,160.55,314.93Z" transform="translate(-60.04 -231.33)" style="fill:#b0b7bc"/><path d="M181.15,314.36a32.08,32.08,0,0,0-7.91-.52s2.82,4.2-18.1,4.59c-22,.41-39.67-21.18-42.42-28.2,0,0,4.06,17.75,21,25.52,9.88,4.53,4.52,3.41-.27,3.27s-15.47-1.53-21.14-9.85c0,0,3.72,17.84,42.15,12.9l22.91-2.51A21.8,21.8,0,0,1,181.15,314.36Z" transform="translate(-60.04 -231.33)" style="fill:#0069aa"/><path d="M244.14,321.63c6.78-1.17,4.6.7-2.81,3.17s1.61,1.38,1.61,1.38,8.28-1,10.36-5.22c3.21-6.55-14.37-.3-14.37-.3C228.65,324.26,237.36,322.8,244.14,321.63Z" transform="translate(-60.04 -231.33)" style="fill:#0069aa"/><path d="M213.76,298.43s-7.89,8.38-38.08.25C175.68,298.69,213.63,315.79,213.76,298.43Z" transform="translate(-60.04 -231.33)" style="fill:#0069aa"/><path d="M226.6,288.38c5.51,1.63,13.5.9,24.55-11.57S255,252.23,255,252.23C253,279.67,226.6,288.38,226.6,288.38Z" transform="translate(-60.04 -231.33)" style="fill:#0069aa"/><path d="M202.49,392.15c4.86-4.47,15-3.28,15-3.28.67-3.65-2.31-7.28-2.31-7.28A12.56,12.56,0,0,0,211,383.9a10.62,10.62,0,0,0-4,2.69,22.18,22.18,0,0,0-5.85,4.67C201,393.38,202.49,392.15,202.49,392.15Z" transform="translate(-60.04 -231.33)" style="fill:#fff"/><path d="M213.26,379.15c-11.54-11.74-11.83,7.49-11.83,7.49a17.83,17.83,0,0,0,4.38-3.16,6.23,6.23,0,0,0,3.32-2.06l-1-4,2.59,3.13A4.71,4.71,0,0,0,213.26,379.15Z" transform="translate(-60.04 -231.33)" style="fill:#fff"/><path d="M190.49,340.43l5.61-1.68h0l1.39-5.72a13.11,13.11,0,0,0-3.67,2.79A17.34,17.34,0,0,0,190.49,340.43Z" transform="translate(-60.04 -231.33)" style="fill:#fff"/><path d="M173.17,364.94c0,.18.06.35.09.49C173.23,365.27,173.2,365.11,173.17,364.94Z" transform="translate(-60.04 -231.33)" style="fill:#0069aa"/><path d="M332.74,429.42c-.27-1.83-.62-3.2-.62-3.2l-4.63-21c.05-4.86-4.56-4.28-4.56-4.28l-13.33.42a10.31,10.31,0,0,0,2.1-4.38c1.74-4.61-3.58-3.72-3.58-3.72s-11.84,1.89-13.89-11c-3.08-19.45-12-25.87-16.54-27.91a36.08,36.08,0,0,0-5.44-12.78s2.31.63,3.46-.85a2.45,2.45,0,0,0,0-3.17s-4.49-7.89-15.87-13.41c0,0,4.9-4.13,2.35-9.57,0,0-1.6-3.39-8.15-3.72,0,0-7.58-.65-11-1.91,3.92-3.53,25.44-15.68,26.56-33.08C270.9,256.55,255.34,242,255.34,242c-1.66-1.88-3-1.14-3-1.14a45.1,45.1,0,0,0-9.11-8.68c-2.4-1.79-3.85,0-3.85,0-1.07,1.18-.4,3.43-.4,3.43l-1.9-.68a5,5,0,0,0-2.32-.45c-2.33,0-2.09,2.84-2.09,2.84l.68,4.83-2.69-.64c-3,0-2.42,3.24-2.42,3.24,1.9,5.9,2,14.24,2,14.24-4-3.08-5.93-1.05-5.93-1.05-1,.56-.72,2.67-.72,2.67,1.8,10.94-2.48,17.85-2.48,17.85l-.16.24c-18.75-26.79-35.76-32.57-35.76-32.57s-2.39-1.5-3.91.59.64,3.61.64,3.61c9.7,8.86,22.88,30.73,22.88,30.73,5.84,11.64,7.31,14.63-3.08,15.25-15.77.95-36.75-5.71-36.75-5.71a47.79,47.79,0,0,1,2.22-10,3.3,3.3,0,0,0-.11-3c-1.36-2.73-6-2.26-6-2.26a21.58,21.58,0,0,1,.06-5.95c.69-4-4.13-2.89-4.13-2.89-4.19.72-7.25,4.46-7.25,4.46a32.76,32.76,0,0,1-1.65-6.9,2.59,2.59,0,0,0-3.27-2.6c-5.53.92-8.79,9.89-8.79,9.89-3.5-4.51-3.44-4.78-5.2-8.59l-.06-.12c-1.53-3.87-4.64-.75-4.64-.75-6.3,5.41-5.76,16.87-4.7,22.71,1,5.39-2.27,5.45-2.27,5.45-5.89-10.51-10.62-21.71-10.62-21.71-.26-.69-.14-1.73-2.36-1.63a2.63,2.63,0,0,0-2.54,2.89c-1.44,15.63,6.11,29.71,6.11,29.71s-4.82-1-2.88,9.95c4.87,27.39,60.17,17.9,60.17,17.9a9.06,9.06,0,0,1-3.32,1.4c-6.76,1.61-6.17,7.25-6.17,7.25a78.58,78.58,0,0,0,.11,8.65c.33,4.44,2.17,5.85,2.17,5.85a22.15,22.15,0,0,0-3.12,6.22,105.2,105.2,0,0,0-54.06,85.86l-21,7.08s-6.24,2.76-2.32,8.44l5.57,8.51L72.8,500.81,61.62,515.47s-3.46,3.38-.16,8.25l5.67,8.86s1.64,3.71,8,1.51l23.27-7.78a6.69,6.69,0,0,0,4.7-4.45l2.93-8.09,1.56,2.44s3.3,5,8,.44l5.8-6.51,3.14,5.2s1.64,2.88,6.21,2c0,0,20-3.65,31-13.22l23.06-5.22s8.14-1.19,12.45-8.15l2.05,2.1a5.6,5.6,0,0,0,5.75,2s58.69-8.77,98.39-12.7c0,0,10-.42,15.74-11.19l2.92-7a6.26,6.26,0,0,0-.75-6.72l-3.43-5.05,4.65-.17A5.36,5.36,0,0,0,328,448.1l4.26-10.75A10.69,10.69,0,0,0,332.74,429.42Zm-1.85,4.53-5.3,13.36c-.54,2.23-3.16,2.14-3.16,2.14l-6.91.25-1,2.1,4.66,6.88a4.15,4.15,0,0,1,.49,4.21L316.76,470c-5.09,9.06-13.61,9.65-13.61,9.65-52.93,4.38-98.63,12.73-98.63,12.73-2.5.44-3.33-1.09-3.33-1.09l-4.45-4.56c-1.06,1.35-3.64,8-12.49,9.72s-23.82,5.4-23.82,5.4c-9.39,8.77-30.27,13-30.27,13a3.64,3.64,0,0,1-3.51-.81l-4.91-8.14-8,8.94c-2.34,2.31-4.1,0-4.1,0l-4.31-6.77-4.7,13a4.15,4.15,0,0,1-3,2.81l-22.41,7.47c-5.23,2-5.93,0-5.93,0l-5.79-9c-2.19-3,0-5.19,0-5.19L75.05,502l12.63-36-6.31-9.65c-2.47-3.1,1.23-4.63,1.23-4.63l22.5-7.57a102.67,102.67,0,0,1,53.78-86.12c.88-3.14,2.31-6.26,4.65-8.31,0,0-2.93-1.07-3.3-5.8l0-7.88a4.82,4.82,0,0,1,.62-3.1,5.3,5.3,0,0,1,3.72-2.3c5.15-1,9.51-6.85,9.89-7.49,0,0-3.68.7-9.3,1.37-19,2.26-60.11,4.1-55.59-23,0,0,3.87,12,16,12.51,0,0-20.46-12.89-19.25-45.09,0,0,6.68,17.63,11.82,23.38,0,0,7.52.77,6-8.14s-.67-16.65,4.36-21.19c0,0,2.68,8.25,8.78,12.26,0,0,3.49-10.92,8.42-11.65,0,0,.59,7.89,4.09,11.71,0,0,2.91-6.34,9-6.8a18,18,0,0,0,.65,9.57,5.28,5.28,0,0,1,5.73.69s-10.25,27.32,8.58,30.87l.24,0a95.26,95.26,0,0,1,11.45,2.16s.18-.3.52-.75a16.34,16.34,0,0,1,3-3.21c.18-.14.36-.27.55-.4,0,0-1.39-.35-3.6-1.12a63.55,63.55,0,0,1-11.16-5.17,50.18,50.18,0,0,1-5.9-4.07,39.68,39.68,0,0,1-4.8-4.54s1.88.54,4.8,1.3c1.37.36,3,.76,4.72,1.17,3.76.89,8.17,1.84,12.34,2.5a55.72,55.72,0,0,0,9.4.83c10.36-.24,24,2.55,11.77-18.92-8.83-15.56-17.16-25.05-21.17-29.18-1.59-1.64-2.5-2.43-2.5-2.43a14.38,14.38,0,0,1,2.5.89c4.86,2.12,16.49,9,32.21,29.93.86,1.15,1.73,2.33,2.62,3.56,0,0,7.72-4.43,5.39-22.8,0,0,3.44.68,6.48,5A57.67,57.67,0,0,0,231,244.81q-.14-.53-.3-1.07l3.94,1.07,1.78.49-.07-.49-1.15-8.14a38.8,38.8,0,0,1,7.15,3l-1.09-6.05a36.34,36.34,0,0,1,10.9,11.22l.42.74.14-.74.35-1.83s.64.65,1.64,1.83c5.74,6.73,23.49,30.65,2.69,48.23l-4.88,4.18-14.42,12.36s5.89,2.65,16.06,3.47c10.33.83,6,9,.56,11.4a38.15,38.15,0,0,1,11.19,6,35.2,35.2,0,0,1,6.69,6.7c.4.53.79,1.07,1.17,1.64l-1.17-.06-6-.31s.25.22.66.65a31.39,31.39,0,0,1,8,16.52c9.65,5.06,15,15.51,16.6,28.05,1.89,14.85,17.59,11.83,17.59,11.83-.22,3.6-5.95,8.25-5.95,8.25,10.94-.35,21-.49,21-.49l6.37,28.11h0A3.66,3.66,0,0,1,330.89,433.94ZM165.46,297.89c10.89,9.06,19.14,11,19.14,11C166.34,308.68,165.46,297.89,165.46,297.89Z" transform="translate(-60.04 -231.33)" style="fill:#fff"/><path d="M297.91,416.26a3.2,3.2,0,0,0,3-1.71c.48-1.13-.33-1.53-1.68-1.45l-1.46.08-1.32,3.16Z" transform="translate(-60.04 -231.33)" style="fill:#002a55"/><path d="M302.46,410.08c.36-.86-.38-1.2-1.45-1.14l-1.48.08-1,2.5,1.48-.08A2.77,2.77,0,0,0,302.46,410.08Z" transform="translate(-60.04 -231.33)" style="fill:#002a55"/><path d="M313.45,413.86l4.69-.16-.58-3.93Z" transform="translate(-60.04 -231.33)" style="fill:#002a55"/><path d="M219.53,419.54l-4.12,4.65,4.7-.8Z" transform="translate(-60.04 -231.33)" style="fill:#002a55"/><path d="M283.5,410.7a5.41,5.41,0,0,0-4.94,3.38c-.9,2.16.11,3,2.38,2.78a5.42,5.42,0,0,0,4.94-3.37C286.78,411.35,285.77,410.53,283.5,410.7Z" transform="translate(-60.04 -231.33)" style="fill:#002a55"/><path d="M182.76,400.13c1.32-.53,8.87-4.44,2.81-22.33a4.29,4.29,0,0,1,3.58.38,4.06,4.06,0,0,0-2.49-2.91,5.56,5.56,0,0,0-3.74.31c4.73,19.74-5.29,24.76-6.12,25.14l-.06,0A13.71,13.71,0,0,0,182.76,400.13Z" transform="translate(-60.04 -231.33)" style="fill:#002a55"/><path d="M232.78,313.34c-2.88-.56-10.39.13-12.84,7.1a98.12,98.12,0,0,0,12.84-1.21,62.08,62.08,0,0,0,12.84-3.34s-9.3-1.11-12.07-2.33A3.71,3.71,0,0,0,232.78,313.34Z" transform="translate(-60.04 -231.33)" style="fill:none"/><path d="M160.55,314.93c-.23-.41-.51-.93-.83-1.53a70.89,70.89,0,0,1-3.72-8c-.3-.8-.56-1.58-.76-2.33-.15-.54-.37-1.06-.45-1.55h0c0,.06,1.76,2.83,3.85,5.91a65.2,65.2,0,0,0,5.42,7.18c1.54-.2,3.12-.46,4.75-.8,0,0-16.31-9.14-7.57-32.49,0,0-3.53-1.57-6,6.1,0,0-.48-5,1.3-7.79a11.76,11.76,0,0,1-.67-6.56s-3.45,1.27-4.12,7.28c0,0-4.57,2.25-8.29-10.44,0,0-4,2.77-4.33,10.35,0,0-6.85-1.75-11-10,0,0-1.88,5.32-.4,13.32,1.22,6.56-.53,11-4.33,12.05a7.52,7.52,0,0,1-2.77.21S132.82,316.68,160.55,314.93Z" transform="translate(-60.04 -231.33)" style="fill:none"/><path d="M239.89,419.87l-2.69-6.35-3.68.54L229,425.35l3.25-.49,2.85-7h0l2.68,6.24,3.74-.52,4.56-11.21-3.25.43-2.9,7.13Z" transform="translate(-60.04 -231.33)" style="fill:none"/><path d="M226.6,288.38c5.51,1.63,13.5.9,24.55-11.57S255,252.23,255,252.23C253,279.67,226.6,288.38,226.6,288.38Z" transform="translate(-60.04 -231.33)" style="fill:none"/><path d="M232.78,332.8c-1.59.32-3.23.71-4.92,1.19l3.6,2.7,1.32,1,1.84,1.38,11.29,8.47h-8.67a20.52,20.52,0,0,1,1.05,3.7s11.35-1.64,17.17,2.1l-3.32,1.3s10.93,5,14.39,11.45a45.39,45.39,0,0,0-3.11-17.21L270,351s-1.89-7.26-10.36-11.88a29.12,29.12,0,0,0-7.78-2.85l8.37-1.77S249.31,329.5,232.78,332.8Z" transform="translate(-60.04 -231.33)" style="fill:none"/><path d="M213.76,298.43s-7.89,8.38-38.08.25C175.68,298.69,213.63,315.79,213.76,298.43Z" transform="translate(-60.04 -231.33)" style="fill:none"/><path d="M251.57,252.38c.11-.56.15-.86.15-.86a22.37,22.37,0,0,0-3.71-6.7,28.25,28.25,0,0,0-1.93-2.26,14.21,14.21,0,0,1,.38,2.26,27.57,27.57,0,0,1-.11,6.09c-.73,5.9-2.5-5.58-2.5-5.58-.18-.16-.4-.34-.63-.52-1.52-1.19-3.79-2.64-3.79-2.64.17.91.31,1.79.42,2.64a24.73,24.73,0,0,1-.08,8.63c-1.12,4.31-2-3.4-2-3.4l-2.74-.46a59.31,59.31,0,0,1,.21,18.48c-1,6.09-2.91,8.83-2.91,8.83-.83-1.52.36-3.74,0-5.93-.82-4.46-2.65-4.71-2.65-4.71-.39,12.86-4.84,18.1-4.84,18.1C246,275,250.74,256.57,251.57,252.38Z" transform="translate(-60.04 -231.33)" style="fill:none"/><path d="M202.82,320.36c3.39,3.24,9.75-2.15,9.75-2.15l12.89-9.8c-3.17.65-10.56,1.22-10.56,1.22a32.23,32.23,0,0,1-9.55,5.77S199.91,317.58,202.82,320.36Z" transform="translate(-60.04 -231.33)" style="fill:none"/><path d="M244.14,321.63c6.78-1.17,4.6.7-2.81,3.17s1.61,1.38,1.61,1.38,8.28-1,10.36-5.22c3.21-6.55-14.37-.3-14.37-.3C228.65,324.26,237.36,322.8,244.14,321.63Z" transform="translate(-60.04 -231.33)" style="fill:none"/><path d="M292.26,418.34q3.53-.24,7.06-.44a5.7,5.7,0,0,0,5-3.16c.86-2-.36-2.49-2.17-2.74v0c1.79-.35,3.28-1,4-2.69.52-1.24-.33-2.33-2.47-2.22s-4.56.24-6.84.38Z" transform="translate(-60.04 -231.33)" style="fill:none"/><path d="M302.07,399c-11.18-.47-12.79-8.67-12.79-8.67a13.91,13.91,0,0,0,2.4,13.17C296.83,402.81,302.07,399,302.07,399Z" transform="translate(-60.04 -231.33)" style="fill:none"/><path d="M284.59,408.1c-4.18.32-7.84,2.11-9.57,6.3s.67,5.42,4.85,5.07,7.84-2.08,9.57-6.23S288.77,407.78,284.59,408.1Z" transform="translate(-60.04 -231.33)" style="fill:none"/><path d="M259.74,388.91a25,25,0,0,0,.41-12.09,12.3,12.3,0,0,0-3.09-6l0,0a11.83,11.83,0,0,0-7-3.25l3.37-1.52a22.92,22.92,0,0,0-14.52-2.15,13.62,13.62,0,0,1-.35,4.44,15.51,15.51,0,0,1-1.54,4l-.06.12c-2.38,4.48-2.21,15.84,5,18.19a16.73,16.73,0,0,0,5,1.53h0l.39.06,1.14.15.14,0,.24,0,.25,0a44.23,44.23,0,0,0,5.2.22c-1.6,1.67-3.12,3.11-4.54,4.35l-.12.11-.06.05-.74.63-.7.58-.05,0-.79.63-1,.74-1.12.82-.15.1-.44.31-.2.14-.58.39-.1.07a31.2,31.2,0,0,1-2.94,1.76,17.68,17.68,0,0,0,8.26,3.7c8.57,1.53,16.92-2.57,16.92-2.57C262.25,403.17,256.51,401.76,259.74,388.91Z" transform="translate(-60.04 -231.33)" style="fill:none"/><path d="M247.83,422.68l3.65-.46L256,411.07l-3.65.44Z" transform="translate(-60.04 -231.33)" style="fill:none"/><path d="M264.47,420.73l3.64-8.84,3.94-.38.92-2.22q-5.76.54-11.52,1.17l-.92,2.24,3.94-.43-3.64,8.86Z" transform="translate(-60.04 -231.33)" style="fill:none"/><path d="M278.59,404.35c-4.85-10.95.29-16.58.29-16.58a10.54,10.54,0,0,0,1.22,6.2,9.92,9.92,0,0,0,4.25,4.11,22.36,22.36,0,0,1-.54-3.75,24.22,24.22,0,0,1,2.22-11.4c-1-13.36-10.65-18.39-10.65-18.39S276,367,270,381.28C261.14,402.12,278.59,404.35,278.59,404.35Z" transform="translate(-60.04 -231.33)" style="fill:none"/><path d="M122.06,414.17l-1.23.19,2.23,3a21.23,21.23,0,0,0,3.75-8.67l-2.19.38s3.72-5,5-9.64l-2.95.72c4.49-5.67,5.93-14.14,5.93-14.14a30.58,30.58,0,0,0,5.93,14.1l-2.9-.76s.78,3.71,5.09,9.55l-2.27-.29a12.89,12.89,0,0,0,2.36,6,14,14,0,0,0,2.53-6.78l-.93.21a22.64,22.64,0,0,0,3-8.21,39.35,39.35,0,0,0,3,8.21l-.93-.21a25.2,25.2,0,0,0,2.61,6.9l-1.14-.08.8,2.78a8.29,8.29,0,0,0,1.68-5.13l-.93.21a34.22,34.22,0,0,0,2.95-8.21s1.05,5.2,3.3,8.37l-1.19-.37a5.86,5.86,0,0,0,1.18,3.16s4.58-2.69,8.23-9.79a7,7,0,0,1-1.9-.58c-2.57-1.13-7.17-4.41-10.06-13.8-4.19-13.6-1.19-19.1,4.46-22.06,0,0,0-.25,0-.69,0-.82,0-2.33.24-4.17a98.24,98.24,0,0,0-39.33,44.07A13.76,13.76,0,0,0,122.06,414.17Z" transform="translate(-60.04 -231.33)" style="fill:none"/><path d="M119.95,454.5l2.88,6.66,23.87-28,.79-.93a6.71,6.71,0,0,1,4.49-2.88l12.31-3.18,9.81-2.53a8.77,8.77,0,0,1,2.12-.3,3.87,3.87,0,0,1,3.12,1.19,1.83,1.83,0,0,1,.25.35l3.43,5.24h0l4-9.15s-3.4,0-9.16-6.07h0a9.87,9.87,0,0,1-10.26-3.26,11.14,11.14,0,0,1-.72-1c-7.61,13-19.34,12.77-19.34,12.77l4.17,1.83s-7.87,2.24-13.32,7.57a14.38,14.38,0,0,1-11.73,4.24,5.67,5.67,0,0,0,3.25,4c-4.1,3.79-11,6.06-14.15,7l2.4,3.67Z" transform="translate(-60.04 -231.33)" style="fill:none"/><path d="M194.1,435.24l-19.78,4.14c-7.71,1.61-12,10-12,10l-11.54,31.22,5.89,6.42,20.48-4.42a17.85,17.85,0,0,0,11.19-10l11.89-31.18Z" transform="translate(-60.04 -231.33)" style="fill:none"/><path d="M161.2,443.84l15.85-18.24-26.31,6.77-30.94,36-9-23.19L83,454.36l9.22,7.15L77.3,503.43,64.92,519.6l26.24-8.8,12-32.62,6.94,19.22,22.69-25.85-10.66,30.59s20.65-3.66,31.11-13.4l-6-7.47Z" transform="translate(-60.04 -231.33)" style="fill:none"/><path d="M241.8,435.24l-4.49,12.42,6.45,6.24,12.66-1.16-3,8.07-6.45.88,2.05-5.24-15.56,1.77-5.65,15.4,28.09-3.79A14.32,14.32,0,0,0,266.43,463l6.11-14s3.32-7.33-5.8-6.89l-13.11,1.15,2.53-7,6.95-.95-1.75,4.56,14-1.44,4.21-11.68,4.21,4-11.34,30s-1.92,5.51-5.84,7.9l30.55-2.81a16.05,16.05,0,0,0,10.73-8.41l3.09-7.69-13.26.95-2.53,6.31-7,.7,3.65-9.29,10.59-.63,3.72-9.44-10.59.53,2.42-6.21,7.05-.63-1.79,4.52,13.22-.84L322,421.39s-60.5,4-68.36,5C253.62,426.4,245.91,426,241.8,435.24Z" transform="translate(-60.04 -231.33)" style="fill:none"/><path d="M233.38,428.89,213.6,431.8s-7.55,1.45-11.93,10.21l-11.26,30.34,6,6.35L218,474.84a19.55,19.55,0,0,0,9.33-7.58l12.31-32Z" transform="translate(-60.04 -231.33)" style="fill:none"/><path d="M317.82,406.49q-5.62,5.48-11.23,11l3.38-.15,1.72-1.76q3.35-.14,6.7-.25l.23,1.7,3.84-.1-1.76-10.56Z" transform="translate(-60.04 -231.33)" style="fill:none"/><path d="M181.15,314.36a32.08,32.08,0,0,0-7.91-.52s2.82,4.2-18.1,4.59c-22,.41-39.67-21.18-42.42-28.2,0,0,4.06,17.75,21,25.52,9.88,4.53,4.52,3.41-.27,3.27s-15.47-1.53-21.14-9.85c0,0,3.72,17.84,42.15,12.9l22.91-2.51A21.8,21.8,0,0,1,181.15,314.36Z" transform="translate(-60.04 -231.33)" style="fill:none"/><path d="M177.75,414.8l0,0-.47.14C177,415,177.29,414.92,177.75,414.8Z" transform="translate(-60.04 -231.33)" style="fill:none"/><path d="M156.84,391.4c3.9,13.26,12.95,11.69,14.83,11.21l.32-.09h0a4.37,4.37,0,0,1-3.41,3.36,13,13,0,0,0,.89,2.11c2.9,5.38,7.92,3.34,10.53,2.28a9,9,0,0,1,5.22-.69c5.82-.25,6.81-1.75,8.46-2.9,3-2.1,4.33-4.09,4.85-6.71.7-3.5,0-8.15,0-15.8,0-15.17,12-11.57,13.65-10.47a20.06,20.06,0,0,1,2.31,1.78c2.3,2.09,4.25,5.09,5.79,10.88,1.1,4.12-1.6,5.29-3,5.61a5,5,0,0,1-.8.12c-5.53-.63-13.38.24-15.39,7.87,0,.13-.07.26-.1.4a15.11,15.11,0,0,1-7.92,10.38c13.4,9.13,24.07.49,24.07.49L212,409.57c11-1.39,14.9-6.27,14.9-6.27a11.38,11.38,0,0,1-8.31-3.35,6.76,6.76,0,0,1-.91-1.15s11.47-2.11,7.49-14.13a33.75,33.75,0,0,0-4.31-8.25,30.43,30.43,0,0,0-4.82-5.64c-7.19-6.39-13.6-3.42-17.57,0a24.13,24.13,0,0,0-4.23,4.75,23.09,23.09,0,0,0-2.13-4.75,11.53,11.53,0,0,0-4.27-4.31c-7.1-3.87-15.82,3.8-15.82,3.8a4.15,4.15,0,0,1,1.47-4l.08-.09.12-.13a13.2,13.2,0,0,1,4.76-3.33,16.41,16.41,0,0,1,8.42-1c1.05-4.61-1.18-9.38-1.18-9.38,4.86,3.61,5.47,9.93,5.47,9.93A14.64,14.64,0,0,0,192.18,351a18.1,18.1,0,0,1,2.22,3.18,20,20,0,0,1,2.41,10.37c4.24-2.9,4.63-6.48,4.63-6.48.82,2.56,4.29,6.4,4.29,6.4l.13-5.6,4.67,5.6a13.9,13.9,0,0,1,1.43-6.65c2.61,5.56,8.21,9.51,8.21,9.51a29.34,29.34,0,0,1-2.86-10.73c3.22-.6,6.82,2.69,6.82,2.69a13.82,13.82,0,0,0,.3-9.26l6.19,3.7c-.58-5.09-4.33-10.6-4.33-10.6l8.21.84-16.62-11.49,6-2.19c-7.57-4.6-19.48,2.15-19.48,2.15a9.26,9.26,0,0,1,.72,2.95l2.31-.59a8.53,8.53,0,0,1-3.43,4.58,10.91,10.91,0,0,1-4.57,1.73l4,.76c-3.73,3.84-9.71,3.87-13.78,4.28a23.07,23.07,0,0,0-5.12,1.13,26.13,26.13,0,0,0-4.19,1.88,3.64,3.64,0,0,1-3.17.16l0,0c-1.27-1-.79-4,.06-6.87a49.32,49.32,0,0,1,2-5.44l.22-.49v0l.21,7.33,2.68-.11,2.19-.09h.34c.66-1.07,1.32-2.06,2-3,2.59-3.63,7.48-9.57,13.21-12l-.22-.19c-.58-.51-2.12-1.89-2.64-2.51l-.09-.11a.15.15,0,0,0-.07,0l0,0a7,7,0,0,1-1.14-2.26c-1.34-4.72,4.16-8.39,6.24-9.33,2.8-1.25,8.83-4.38,8.83-4.38a56.81,56.81,0,0,1-7.08-.07c-2.36-.12-4.36-.26-4.36-.26-1.44.19-5.82,2.6-5.82,2.6l-.49-3.48a35.55,35.55,0,0,0-7.34,7.64,39.3,39.3,0,0,0-3.41,5.57l-1.12-2.65a23.92,23.92,0,0,0-3.95,6.54l-.26.28A36.69,36.69,0,0,1,170,331c-1.29.76-2.55,1.45-3.61,2-1.74.93-3,1.52-3,1.52v9.89c.54,4.22,5.13,1.85,5.13,1.85l3.32-7.87s1.51,11.67-3.29,12.37c-6,.87-7.66,10.59-8.11,17.27-.24,3.58-.13,6.29-.13,6.29a3.8,3.8,0,0,1-2-2C156.89,373.55,152.48,376.56,156.84,391.4Z" transform="translate(-60.04 -231.33)" style="fill:none"/><path d="M190.49,340.43l5.61-1.68h0l1.39-5.72a13.11,13.11,0,0,0-3.67,2.79A17.34,17.34,0,0,0,190.49,340.43Z" transform="translate(-60.04 -231.33)" style="fill:none"/><path d="M213.64,426.19q3.36-.6,6.72-1.16l.23,1.66,3.84-.63-1.77-10.31-2.88.48q-5.63,6.24-11.26,12.57l3.39-.61Z" transform="translate(-60.04 -231.33)" style="fill:none"/><path d="M202.49,392.15c4.86-4.47,15-3.28,15-3.28.67-3.65-2.31-7.28-2.31-7.28A12.56,12.56,0,0,0,211,383.9a10.62,10.62,0,0,0-4,2.69,22.18,22.18,0,0,0-5.85,4.67C201,393.38,202.49,392.15,202.49,392.15Z" transform="translate(-60.04 -231.33)" style="fill:none"/><path d="M213.26,379.15c-11.54-11.74-11.83,7.49-11.83,7.49a17.83,17.83,0,0,0,4.38-3.16,6.23,6.23,0,0,0,3.32-2.06l-1-4,2.59,3.13A4.71,4.71,0,0,0,213.26,379.15Z" transform="translate(-60.04 -231.33)" style="fill:none"/><path d="M330.92,431.34h0l-6.37-28.11s-10,.14-21,.49c0,0,5.72-4.66,5.95-8.25,0,0-15.7,3-17.59-11.83-1.6-12.54-7-23-16.6-28.05a31.39,31.39,0,0,0-8-16.52c-.41-.43-.66-.65-.66-.65l6,.31,1.17.06c-.38-.57-.77-1.11-1.17-1.64a35.2,35.2,0,0,0-6.69-6.7,38.15,38.15,0,0,0-11.19-6c5.4-2.42,9.77-10.57-.56-11.4-10.17-.82-16.06-3.47-16.06-3.47l14.42-12.36,4.88-4.18c20.8-17.58,3-41.5-2.69-48.23-1-1.17-1.64-1.83-1.64-1.83l-.35,1.83-.14.74-.42-.74a36.34,36.34,0,0,0-10.9-11.22l1.09,6.05a38.81,38.81,0,0,0-7.15-3l1.15,8.14.07.49-1.78-.49-3.94-1.07q.16.54.3,1.07a57.67,57.67,0,0,1,1.55,19.67c-3-4.32-6.48-5-6.48-5,2.33,18.37-5.39,22.8-5.39,22.8-.89-1.23-1.76-2.42-2.62-3.56-15.72-21-27.35-27.81-32.21-29.93a14.38,14.38,0,0,0-2.5-.89s.91.8,2.5,2.43c4,4.13,12.34,13.62,21.17,29.18,12.18,21.47-1.41,18.68-11.77,18.92a55.72,55.72,0,0,1-9.4-.83c-4.17-.66-8.59-1.61-12.34-2.5-1.74-.41-3.35-.82-4.72-1.17-2.91-.75-4.8-1.3-4.8-1.3a39.68,39.68,0,0,0,4.8,4.54,50.19,50.19,0,0,0,5.9,4.07,63.55,63.55,0,0,0,11.16,5.17c2.21.77,3.6,1.12,3.6,1.12-.19.13-.37.26-.55.4a16.34,16.34,0,0,0-3,3.21c-.33.45-.52.75-.52.75a95.26,95.26,0,0,0-11.45-2.16l-.24,0c-18.83-3.56-8.58-30.87-8.58-30.87a5.28,5.28,0,0,0-5.73-.69,18,18,0,0,1-.65-9.57c-6.12.46-9,6.8-9,6.8-3.5-3.82-4.09-11.71-4.09-11.71-4.94.74-8.42,11.65-8.42,11.65-6.1-4-8.78-12.26-8.78-12.26-5,4.55-5.91,12.29-4.36,21.19s-6,8.14-6,8.14c-5.14-5.75-11.82-23.38-11.82-23.38-1.21,32.2,19.25,45.09,19.25,45.09-12.1-.47-16-12.51-16-12.51-4.52,27.15,36.59,25.3,55.59,23,5.62-.67,9.3-1.37,9.3-1.37-.38.64-4.74,6.44-9.89,7.49a5.3,5.3,0,0,0-3.72,2.3,4.82,4.82,0,0,0-.62,3.1l0,7.88c.37,4.72,3.3,5.8,3.3,5.8-2.34,2-3.77,5.16-4.65,8.31a102.67,102.67,0,0,0-53.78,86.12l-22.5,7.57s-3.7,1.53-1.23,4.63l6.31,9.65L75.05,502,63.55,517.11s-2.19,2.18,0,5.19l5.79,9s.7,2,5.93,0l22.41-7.47a4.15,4.15,0,0,0,3-2.81l4.7-13,4.31,6.77s1.76,2.31,4.1,0l8-8.94,4.91,8.14a3.64,3.64,0,0,0,3.51.81s20.88-4.28,30.27-13c0,0,15-3.73,23.82-5.4s11.43-8.36,12.49-9.72l4.45,4.56s.84,1.53,3.33,1.09c0,0,45.7-8.36,98.63-12.73,0,0,8.52-.59,13.61-9.65l2.95-7.09a4.15,4.15,0,0,0-.49-4.21l-4.66-6.88,1-2.1,6.91-.25s2.61.09,3.16-2.14l5.3-13.36A3.66,3.66,0,0,0,330.92,431.34Zm-27.26-24.27c2.14-.11,3,1,2.47,2.22-.69,1.64-2.18,2.34-4,2.69v0c1.81.26,3,.7,2.17,2.74a5.7,5.7,0,0,1-5,3.16q-3.53.2-7.06.44l4.56-10.9Q300.24,407.24,303.65,407.07Zm-14.37-16.69s1.61,8.2,12.79,8.67c0,0-5.25,3.77-10.39,4.5A13.91,13.91,0,0,1,289.28,390.37Zm.16,22.86c-1.73,4.15-5.39,5.88-9.57,6.23s-6.59-.88-4.85-5.07,5.39-6,9.57-6.3S291.17,409.09,289.44,413.23Zm-14-48.7s9.67,5,10.65,18.39a24.22,24.22,0,0,0-2.22,11.4,22.36,22.36,0,0,0,.54,3.75,9.92,9.92,0,0,1-4.25-4.11,10.54,10.54,0,0,1-1.22-6.2s-5.15,5.63-.29,16.58c0,0-17.45-2.23-8.63-23.06C276,367,275.39,364.54,275.39,364.54Zm-14.86,48.16.92-2.24q5.76-.63,11.52-1.17l-.92,2.22-3.94.38-3.64,8.84-3.65.39,3.64-8.86Zm-11.44-5.57a17.68,17.68,0,0,1-8.26-3.7,31.2,31.2,0,0,0,2.94-1.76l.1-.07.58-.39.2-.14.44-.31.15-.1,1.12-.82,1-.74.79-.63.05,0,.7-.58.74-.63.06-.05.12-.11c1.42-1.24,2.95-2.68,4.54-4.35a44.23,44.23,0,0,1-5.2-.22l-.25,0-.24,0-.14,0-1.14-.15-.39-.06h0a16.73,16.73,0,0,1-5-1.53c-7.2-2.34-7.36-13.71-5-18.19l.06-.12a15.51,15.51,0,0,0,1.54-4,13.62,13.62,0,0,0,.35-4.44,22.92,22.92,0,0,1,14.52,2.15l-3.37,1.52a11.83,11.83,0,0,1,7,3.25l0,0a12.3,12.3,0,0,1,3.09,6,25,25,0,0,1-.41,12.09c-3.22,12.85,2.52,14.26,6.27,15.65C266,404.56,257.67,408.66,249.09,407.12Zm6.95,3.95-4.56,11.15-3.65.46,4.56-11.17Zm-10,1.24-4.56,11.21-3.74.52-2.68-6.24h0l-2.85,7-3.25.49,4.56-11.29,3.68-.54,2.69,6.35h0l2.9-7.13Zm14.16-77.85-8.37,1.77a29.12,29.12,0,0,1,7.78,2.85C268.1,343.7,270,351,270,351l-6.57-2.06a45.39,45.39,0,0,1,3.11,17.21c-3.46-6.48-14.39-11.45-14.39-11.45l3.32-1.3c-5.81-3.75-17.17-2.1-17.17-2.1a20.52,20.52,0,0,0-1.05-3.7h8.67l-11.29-8.47-1.84-1.38-1.32-1-3.6-2.7c1.69-.48,3.33-.87,4.92-1.19C249.31,329.5,260.22,334.46,260.22,334.46ZM253.3,321c-2.09,4.26-10.36,5.22-10.36,5.22s-9,1.09-1.61-1.38,9.59-4.34,2.81-3.17-15.49,2.63-5.21-1C238.93,320.67,256.52,314.41,253.3,321Zm-7.68-5.07a62.08,62.08,0,0,1-12.84,3.34,98.12,98.12,0,0,1-12.84,1.21c2.45-7,10-7.66,12.84-7.1a3.71,3.71,0,0,1,.76.22C236.32,314.79,245.62,315.9,245.62,315.9ZM255,252.23s7.19,12.11-3.86,24.58-19,13.2-24.55,11.57C226.6,288.38,253,279.67,255,252.23Zm-25.38,14s1.83.25,2.65,4.71c.4,2.19-.79,4.42,0,5.93,0,0,1.9-2.74,2.91-8.83a59.31,59.31,0,0,0-.21-18.48l2.74.46s.9,7.71,2,3.4a24.73,24.73,0,0,0,.08-8.63c-.11-.85-.25-1.73-.42-2.64,0,0,2.27,1.45,3.79,2.64.23.18.44.36.63.52,0,0,1.77,11.48,2.5,5.58a27.57,27.57,0,0,0,.11-6.09,14.21,14.21,0,0,0-.38-2.26,28.25,28.25,0,0,1,1.93,2.26,22.37,22.37,0,0,1,3.71,6.7s0,.31-.15.86c-.83,4.19-5.62,22.64-26.78,32C224.79,284.34,229.24,279.1,229.63,266.24Zm-4.17,42.17-12.89,9.8s-6.36,5.39-9.75,2.15c-2.91-2.78,2.52-5,2.52-5a32.23,32.23,0,0,0,9.55-5.77S222.29,309.06,225.46,308.41Zm-49.78-9.72c30.19,8.12,38.08-.25,38.08-.25C213.63,315.79,175.68,298.69,175.68,298.69Zm-52.32-3.08c3.8-1.07,5.55-5.49,4.33-12.05-1.49-8,.4-13.32.4-13.32,4.17,8.27,11,10,11,10,.38-7.58,4.33-10.35,4.33-10.35,3.72,12.68,8.29,10.44,8.29,10.44.67-6,4.12-7.28,4.12-7.28a11.76,11.76,0,0,0,.67,6.56c-1.79,2.8-1.3,7.79-1.3,7.79,2.48-7.67,6-6.1,6-6.1-8.74,23.35,7.57,32.49,7.57,32.49-1.63.34-3.21.6-4.75.8a65.2,65.2,0,0,1-5.42-7.18c-2.09-3.08-3.81-5.84-3.85-5.91h0c.08.48.3,1,.45,1.55.2.74.47,1.53.76,2.33a70.89,70.89,0,0,0,3.72,8c.32.6.6,1.12.83,1.53-27.73,1.75-40-19.1-40-19.1A7.52,7.52,0,0,0,123.36,295.61Zm31.09,26.46C116,327,112.3,309.16,112.3,309.16c5.67,8.32,16.35,9.71,21.14,9.85s10.15,1.26.27-3.27c-16.93-7.76-21-25.52-21-25.52,2.75,7,20.45,28.61,42.42,28.2,20.91-.39,18.1-4.59,18.1-4.59a32.08,32.08,0,0,1,7.91.52,21.8,21.8,0,0,0-3.79,5.2Zm5.91,52.28s-.11-2.71.13-6.29c.45-6.68,2.14-16.4,8.11-17.27,4.8-.7,3.29-12.37,3.29-12.37l-3.32,7.87s-4.6,2.37-5.13-1.85v-9.89s1.22-.59,3-1.52c1.06-.56,2.32-1.25,3.61-2a36.69,36.69,0,0,0,7.14-5.1l.26-.28a23.92,23.92,0,0,1,3.95-6.54l1.12,2.65a39.3,39.3,0,0,1,3.41-5.57,35.55,35.55,0,0,1,7.34-7.64l.49,3.48s4.38-2.41,5.82-2.6c0,0,2,.14,4.36.26a56.81,56.81,0,0,0,7.08.07s-6,3.12-8.83,4.38c-2.09.93-7.58,4.6-6.24,9.33a7,7,0,0,0,1.14,2.26l0,0a.15.15,0,0,1,.07,0l.09.11c.52.62,2.06,2,2.64,2.51l.22.19c-5.73,2.42-10.62,8.36-13.21,12-.66.93-1.32,1.92-2,3h-.34l-2.19.09-2.68.11-.21-7.33v0l-.22.49a49.32,49.32,0,0,0-2,5.44c-.85,2.83-1.34,5.83-.06,6.87l0,0a3.64,3.64,0,0,0,3.17-.16,26.13,26.13,0,0,1,4.19-1.88,23.07,23.07,0,0,1,5.12-1.13c4.07-.42,10-.44,13.78-4.28l-4-.76a10.91,10.91,0,0,0,4.57-1.73,8.53,8.53,0,0,0,3.43-4.58l-2.31.59a9.26,9.26,0,0,0-.72-2.95s11.91-6.74,19.48-2.15l-6,2.19,16.62,11.49-8.21-.84s3.76,5.51,4.33,10.6l-6.19-3.7a13.82,13.82,0,0,1-.3,9.26s-3.6-3.29-6.82-2.69a29.34,29.34,0,0,0,2.86,10.73s-5.6-3.95-8.21-9.51a13.9,13.9,0,0,0-1.43,6.65l-4.67-5.6-.13,5.6s-3.47-3.84-4.29-6.4c0,0-.39,3.58-4.63,6.48a20,20,0,0,0-2.41-10.37,18.1,18.1,0,0,0-2.22-3.18,14.64,14.64,0,0,1-1.05,11.28s-.61-6.32-5.47-9.93c0,0,2.23,4.77,1.18,9.38a16.41,16.41,0,0,0-8.42,1,13.2,13.2,0,0,0-4.76,3.33l-.12.13-.08.09a4.15,4.15,0,0,0-1.47,4s8.72-7.67,15.82-3.8a11.53,11.53,0,0,1,4.27,4.31,23.09,23.09,0,0,1,2.13,4.75,24.13,24.13,0,0,1,4.23-4.75c4-3.42,10.38-6.39,17.57,0a30.43,30.43,0,0,1,4.82,5.64,33.75,33.75,0,0,1,4.31,8.25c4,12-7.49,14.13-7.49,14.13a6.76,6.76,0,0,0,.91,1.15,11.38,11.38,0,0,0,8.31,3.35s-3.92,4.88-14.9,6.27l5.18,1.64s-10.66,8.64-24.07-.49A15.11,15.11,0,0,0,201,400.35c0-.14.07-.27.1-.4,2-7.63,9.86-8.49,15.39-7.87a5,5,0,0,0,.8-.12c1.42-.33,4.11-1.49,3-5.61-1.54-5.79-3.49-8.79-5.79-10.88a20.06,20.06,0,0,0-2.31-1.78c-1.63-1.1-13.67-4.7-13.65,10.47,0,7.64.72,12.29,0,15.8-.53,2.63-1.84,4.61-4.85,6.71-1.65,1.15-2.63,2.64-8.46,2.9a9,9,0,0,0-5.22.69c-2.61,1.07-7.63,3.1-10.53-2.28a13,13,0,0,1-.89-2.11,4.37,4.37,0,0,0,3.41-3.36h0l-.32.09c-1.88.48-10.93,2.05-14.83-11.21-4.36-14.84,0-17.85,1.5-19A3.8,3.8,0,0,0,160.36,374.35ZM197.52,333l-1.39,5.72h0l-5.61,1.68a17.34,17.34,0,0,1,3.36-4.62A13.11,13.11,0,0,1,197.52,333Zm-1.15,98.37-1.5.3-1.22-7.24h0l-3.22,8.15-3.35.7c0-.1,3.14-8,4.66-11.83l3.83-.78,1.69,6.53q3.8-4.19,7.59-8.34l4-.74c0,.09-3.17,7.91-4.69,11.73l-3.36.64,3.16-8Q200.13,427,196.37,431.39Zm23.42-15.17,2.88-.48,1.77,10.31-3.84.63-.23-1.66q-3.36.57-6.72,1.16l-1.72,2-3.39.61Q214.16,422.47,219.79,416.23Zm-10.65-34.81a6.23,6.23,0,0,1-3.32,2.06,17.83,17.83,0,0,1-4.38,3.16s.28-19.23,11.83-7.49a4.71,4.71,0,0,1-2.57,1.39l-2.59-3.13ZM207,386.6a10.62,10.62,0,0,1,4-2.69,12.56,12.56,0,0,1,4.17-2.31s3,3.63,2.31,7.28c0,0-10.16-1.19-15,3.28,0,0-1.44,1.23-1.35-.88A22.18,22.18,0,0,1,207,386.6Zm-29.24,28.2c-.46.12-.79.21-.49.12l.47-.14Zm-20-50.47c-.19,1.84-.23,3.35-.24,4.17,0,.44,0,.69,0,.69-5.66,3-8.65,8.46-4.46,22.06,2.89,9.39,7.49,12.67,10.06,13.8a7,7,0,0,0,1.9.58c-3.65,7.1-8.23,9.79-8.23,9.79a5.86,5.86,0,0,1-1.18-3.16l1.19.37c-2.24-3.16-3.3-8.37-3.3-8.37a34.22,34.22,0,0,1-2.95,8.21l.93-.21a8.29,8.29,0,0,1-1.68,5.13l-.8-2.78,1.14.08a25.2,25.2,0,0,1-2.61-6.9l.93.21a39.35,39.35,0,0,1-3-8.21,22.64,22.64,0,0,1-3,8.21l.93-.21a14,14,0,0,1-2.53,6.78,12.89,12.89,0,0,1-2.36-6l2.27.29c-4.31-5.84-5.09-9.55-5.09-9.55l2.9.76a30.58,30.58,0,0,1-5.93-14.1s-1.45,8.47-5.93,14.14l2.95-.72c-1.33,4.68-5,9.64-5,9.64l2.19-.38a21.23,21.23,0,0,1-3.75,8.67l-2.23-3,1.23-.19a13.76,13.76,0,0,1-3.66-5.77A98.24,98.24,0,0,1,157.73,364.33Zm-27.86,76.75a5.67,5.67,0,0,1-3.25-4,14.38,14.38,0,0,0,11.73-4.24c5.45-5.33,13.32-7.57,13.32-7.57l-4.17-1.83s11.73.19,19.34-12.77a11.14,11.14,0,0,0,.72,1,9.87,9.87,0,0,0,10.26,3.26h0C183.59,420.94,187,421,187,421l-4,9.15h0l-3.43-5.24a1.83,1.83,0,0,0-.25-.35,3.87,3.87,0,0,0-3.12-1.19,8.77,8.77,0,0,0-2.12.3l-9.81,2.53L152,429.35a6.71,6.71,0,0,0-4.49,2.88l-.79.93-23.87,28-2.88-6.66-1.82-2.79-2.4-3.67C118.87,447.14,125.77,444.87,129.87,441.08Zm-7.78,61,10.66-30.59L110.06,497.4l-6.94-19.22-12,32.62-26.24,8.8L77.3,503.43,92.2,461.51,83,454.36l27.82-9.16,9,23.19,30.94-36,26.31-6.77L161.2,443.84l-14,37.43,6,7.47C142.74,498.47,122.09,502.13,122.09,502.13Zm55-19.57L156.64,487l-5.89-6.42,11.54-31.22s4.32-8.35,12-10l19.78-4.14,6.1,6.17L188.31,472.6A17.85,17.85,0,0,1,177.12,482.56Zm40.9-7.72-21.64,3.86-6-6.35L201.68,442c4.38-8.76,11.93-10.21,11.93-10.21l19.78-2.91,6.28,6.38-12.31,32A19.55,19.55,0,0,1,218,474.84Zm98.35-39.07-13.22.84,1.79-4.52-7.05.63-2.42,6.21,10.59-.53-3.72,9.44-10.59.63-3.65,9.29,7-.7,2.53-6.31,13.26-.95-3.09,7.69a16.05,16.05,0,0,1-10.73,8.41l-30.55,2.81c3.93-2.38,5.84-7.9,5.84-7.9l11.34-30-4.21-4-4.21,11.68-14,1.44,1.75-4.56-6.95.95-2.53,7,13.11-1.15c9.12-.44,5.8,6.89,5.8,6.89l-6.11,14a14.32,14.32,0,0,1-10.52,6.81l-28.09,3.79,5.65-15.4L249,456.45,247,461.69l6.45-.88,3-8.07-12.66,1.16-6.45-6.24,4.49-12.42c4.11-9.21,11.82-8.84,11.82-8.84,7.87-1,68.36-5,68.36-5Zm2.24-18.7-.23-1.7q-3.35.11-6.7.25L310,417.38l-3.38.15q5.62-5.57,11.23-11l2.87-.08L322.45,417Z" transform="translate(-60.04 -231.33)" style="fill:#002a55"/><path d="M185.57,377.8c6.07,17.9-1.48,21.8-2.81,22.33l-.19.07c7.93-2,8.11-11.46,7.42-17.31,0-.38-.09-.75-.14-1.1a35.68,35.68,0,0,0-.7-3.61A4.29,4.29,0,0,0,185.57,377.8Z" transform="translate(-60.04 -231.33)" style="fill:#fff"/><path d="M302.07,399c-11.18-.47-12.79-8.67-12.79-8.67a13.91,13.91,0,0,0,2.4,13.17C296.83,402.81,302.07,399,302.07,399Z" transform="translate(-60.04 -231.33)" style="fill:#b0b7bc"/><path d="M278.59,404.35s-10.91-7.06-6.19-20.12l2.74,3.24s3.53-19,10.9-4.54c-1-13.36-10.65-18.39-10.65-18.39S276,367,270,381.28C261.14,402.12,278.59,404.35,278.59,404.35Z" transform="translate(-60.04 -231.33)" style="fill:#717073"/><path d="M283.82,394.33a24.22,24.22,0,0,1,2.22-11.4A23.1,23.1,0,0,0,283.82,394.33Z" transform="translate(-60.04 -231.33)" style="fill:#717073"/><path d="M278.89,387.77a10.53,10.53,0,0,0,1.22,6.2A10.93,10.93,0,0,1,278.89,387.77Z" transform="translate(-60.04 -231.33)" style="fill:#717073"/><path d="M249.13,392.49a44.23,44.23,0,0,0,5.2.22A44.93,44.93,0,0,1,249.13,392.49Z" transform="translate(-60.04 -231.33)" style="fill:#717073"/><path d="M245.25,400.66l-.15.1-.44.31-.2.14-.58.39-.1.07a31.2,31.2,0,0,1-2.94,1.76,37.1,37.1,0,0,0,5.54-3.59Z" transform="translate(-60.04 -231.33)" style="fill:#717073"/><path d="M249.09,407.12a18.09,18.09,0,0,1-8.26-3.7A17.68,17.68,0,0,0,249.09,407.12Z" transform="translate(-60.04 -231.33)" style="fill:#717073"/><path d="M245.11,382.17h0a40.12,40.12,0,0,0-8.13-9.68c-2.38,4.48-2.21,15.84,5,18.19a16.73,16.73,0,0,0,5,1.53A13.52,13.52,0,0,0,245.11,382.17Z" transform="translate(-60.04 -231.33)" style="fill:#717073"/><path d="M254.2,374.39a14.46,14.46,0,0,0-6.48.34l.1.05v0s11.19,4.24,6.82,18,1.62,13.09,11.36,11.82c-3.76-1.39-9.5-2.8-6.27-15.65a25,25,0,0,0,.41-12.09,12.3,12.3,0,0,0-3.09-6l0,0a11.83,11.83,0,0,0-7-3.25l3.37-1.52a22.92,22.92,0,0,0-14.52-2.15,13.62,13.62,0,0,1-.35,4.44C244.44,369.35,251.54,371.18,254.2,374.39Z" transform="translate(-60.04 -231.33)" style="fill:#717073"/><path d="M275.14,387.47l-2.74-3.24c-4.73,13.05,6.19,20.12,6.19,20.12-4.85-10.95.29-16.58.29-16.58a10.93,10.93,0,0,0,1.22,6.2,9.92,9.92,0,0,0,4.25,4.11,22.36,22.36,0,0,1-.54-3.75,23.1,23.1,0,0,1,2.22-11.4C278.68,368.44,275.14,387.47,275.14,387.47Z" transform="translate(-60.04 -231.33)" style="fill:#b0b7bc"/><path d="M254.65,392.73c4.38-13.73-6.82-18-6.82-18v0l-.1-.05a14.46,14.46,0,0,1,6.48-.34c-2.67-3.21-9.77-5-15.63-6a15.51,15.51,0,0,1-1.54,4l-.06.12a40.12,40.12,0,0,1,8.13,9.68h0a13.52,13.52,0,0,1,1.87,10h0l.39.06,1.14.15.14,0,.24,0,.25,0a44.93,44.93,0,0,0,5.2.22c-1.6,1.67-3.12,3.11-4.54,4.35l-.12.11-.06.05-.74.63-.7.58-.05,0-.79.63-1,.74a37.1,37.1,0,0,1-5.54,3.59,18.09,18.09,0,0,0,8.26,3.7c8.57,1.53,16.92-2.57,16.92-2.57C256.27,405.82,250.27,406.46,254.65,392.73Z" transform="translate(-60.04 -231.33)" style="fill:#b0b7bc"/><path d="M161.2,443.84l15.85-18.24-26.31,6.77-30.94,36-9-23.19L83,454.36l9.22,7.15L77.3,503.43,64.92,519.6l26.24-8.8,12-32.62,6.94,19.22,22.69-25.85-10.66,30.59s20.65-3.66,31.11-13.4l-6-7.47Zm-10.73,44.83c-9.31,7.95-25.75,10.94-25.75,10.94l12.56-36.13-26.66,30.66-7.51-20.83L89.82,509.43l-20.24,6.84,9.19-12.1L94.13,461l-7.37-6.14L110,447.31l9.19,24.31,32.69-37.5,20.31-5.47-12.63,14.49L144.85,482Z" transform="translate(-60.04 -231.33)" style="fill:#fff"/><path d="M194.1,435.24l-19.78,4.14c-7.71,1.61-12,10-12,10l-11.54,31.22,5.89,6.42,20.48-4.42a17.85,17.85,0,0,0,11.19-10l11.89-31.18Zm-7.82,37.64c-3,5.21-9.72,8.07-9.72,8.07l-19.36,4.21-4.49-5L163.86,450c3-6.62,10.94-9,10.94-9l18.77-3.93,4.67,4.74Z" transform="translate(-60.04 -231.33)" style="fill:#fff"/><path d="M241.8,435.24l-4.49,12.42,6.45,6.24,12.66-1.16-3,8.07-6.45.88,2.05-5.24-15.56,1.77-5.65,15.4,28.09-3.79A14.32,14.32,0,0,0,266.43,463l6.11-14s3.32-7.33-5.8-6.89l-13.11,1.15,2.53-7,6.95-.95-1.75,4.56,14-1.44,4.21-11.68,4.21,4-11.34,30s-1.92,5.51-5.84,7.9l30.55-2.81a16.05,16.05,0,0,0,10.73-8.41l3.09-7.69-13.26.95-2.53,6.31-7,.7,3.65-9.29,10.59-.63,3.72-9.44-10.59.53,2.42-6.21,7.05-.63-1.79,4.52,13.22-.84L322,421.39s-60.5,4-68.36,5C253.62,426.4,245.91,426,241.8,435.24Zm77.66-12-4.21,10.91-9.58.63,1.79-4.63-10.73,1L293,440.75l10.56-.49-2.38,6-10.59.56-5.05,12.87,10.8-1.12,2.53-6.24,9.51-.63-2.81,6.24c-2.79,4.71-8.77,6.31-8.77,6.31L271,466.53a8.37,8.37,0,0,0,2.57-4.31l12.07-31.81-4.81-4.63ZM274,436.93,263.9,438l1.75-4.66-10.73,1.51-3.79,10.42,17-1.58s4.5-.51,3,4.38L265,462.32a13.55,13.55,0,0,1-7.68,5.68l-27,3.54,4.35-11.75,11.71-1.26-1.89,5.12,10.17-1.26L259,450.85l-14.66,1.37-5.09-5,4.38-12.07s3-6.28,9.4-6.87l25-2.56Z" transform="translate(-60.04 -231.33)" style="fill:#fff"/><path d="M233.38,428.89,213.6,431.8s-7.55,1.45-11.93,10.21l-11.26,30.34,6,6.35L218,474.84a19.55,19.55,0,0,0,9.33-7.58l12.31-32Zm-7.54,37.57c-2.32,3.7-8.38,6.77-8.38,6.77L197,476.95l-4.63-5,10.87-29.25c3.26-7.21,10.73-9.22,10.73-9.22l18.84-2.77,4.88,5Z" transform="translate(-60.04 -231.33)" style="fill:#fff"/><path d="M159.55,443.13l12.63-14.49-20.31,5.47-32.69,37.5L110,447.31l-23.22,7.54L94.13,461,78.77,504.17l-9.19,12.1,20.24-6.84,13.29-36.13,7.51,20.83,26.66-30.66-12.56,36.13s16.44-3,25.75-10.94l-5.61-6.7Z" transform="translate(-60.04 -231.33)" style="fill:#0069aa"/><path d="M193.57,437.07,174.81,441s-7.91,2.43-10.94,9l-11.15,30.1,4.49,5,19.36-4.21s6.76-2.86,9.72-8.07l12-31.08Zm-18.2,37.81-11,2.28,11.22-29.81,10.77-2.7Z" transform="translate(-60.04 -231.33)" style="fill:#0069aa"/><path d="M232.79,430.72,214,433.49s-7.48,2-10.73,9.22L192.35,472l4.63,5,20.48-3.72s6.07-3.07,8.38-6.77l11.82-30.76ZM214.72,467.2l-10.8,1.89,11.15-29,10.8-1.89Z" transform="translate(-60.04 -231.33)" style="fill:#0069aa"/><path d="M243.63,435.17l-4.38,12.07,5.09,5L259,450.85l-4.35,11.54-10.17,1.26,1.89-5.12-11.71,1.26-4.35,11.75,27-3.54a13.55,13.55,0,0,0,7.68-5.68L271.13,448c1.52-4.9-3-4.38-3-4.38l-17,1.58,3.79-10.42,10.73-1.51L263.9,438,274,436.93l4-11.19-25,2.56C246.64,428.89,243.63,435.17,243.63,435.17Z" transform="translate(-60.04 -231.33)" style="fill:#0069aa"/><path d="M273.62,462.22a8.37,8.37,0,0,1-2.57,4.31l25.72-2.28s6-1.6,8.77-6.31l2.81-6.24-9.51.63-2.53,6.24-10.8,1.12,5.05-12.87,10.59-.56,2.38-6-10.56.49,3.75-9.61,10.73-1-1.79,4.63,9.58-.63,4.21-10.91-38.58,2.52,4.81,4.63Z" transform="translate(-60.04 -231.33)" style="fill:#0069aa"/><path d="M203.92,469.09l10.8-1.89,11.15-29L215.07,440Zm19.33-28.76-9.72,25.32-6.95,1.23,9.75-25.36Z" transform="translate(-60.04 -231.33)" style="fill:#fff"/><path d="M164.32,477.16l11-2.28,10.94-30.24-10.77,2.7Zm19.36-30.1-9.58,26.34L167,474.77l9.82-26Z" transform="translate(-60.04 -231.33)" style="fill:#fff"/><polygon points="153.5 234.32 163.21 209 156.3 210.19 146.55 235.55 153.5 234.32" style="fill:#002a55"/><polygon points="114.07 242.07 123.65 215.73 116.77 217.41 106.95 243.44 114.07 242.07" style="fill:#002a55"/><path d="M213.64,426.19q3.36-.6,6.72-1.16l.23,1.66,3.84-.63-1.77-10.31-2.88.48q-5.63,6.24-11.26,12.57l3.39-.61Zm5.89-6.65.58,3.85-4.7.8Z" transform="translate(-60.04 -231.33)" style="fill:#fff"/><path d="M239.89,419.87l-2.69-6.35-3.68.54L229,425.35l3.25-.49,2.85-7h0l2.68,6.24,3.74-.52,4.56-11.21-3.25.43-2.9,7.13Z" transform="translate(-60.04 -231.33)" style="fill:#fff"/><path d="M247.83,422.68l3.65-.46L256,411.07l-3.65.44Z" transform="translate(-60.04 -231.33)" style="fill:#fff"/><path d="M264.47,420.73l3.64-8.84,3.94-.38.92-2.22q-5.76.54-11.52,1.17l-.92,2.24,3.94-.43-3.64,8.86Z" transform="translate(-60.04 -231.33)" style="fill:#fff"/><path d="M284.59,408.1c-4.18.32-7.84,2.11-9.57,6.3s.67,5.42,4.85,5.07,7.84-2.08,9.57-6.23S288.77,407.78,284.59,408.1Zm1.3,5.39a5.42,5.42,0,0,1-4.94,3.37c-2.27.19-3.28-.61-2.38-2.78a5.41,5.41,0,0,1,4.94-3.38C285.77,410.53,286.78,411.35,285.89,413.49Z" transform="translate(-60.04 -231.33)" style="fill:#fff"/><path d="M292.26,418.34q3.53-.24,7.06-.44a5.7,5.7,0,0,0,5-3.16c.86-2-.36-2.49-2.17-2.74v0c1.79-.35,3.28-1,4-2.69.52-1.24-.33-2.33-2.47-2.22s-4.56.24-6.84.38Zm7.27-9.32,1.48-.08c1.07-.06,1.81.28,1.45,1.14a2.77,2.77,0,0,1-2.5,1.35l-1.48.08Zm-.29,4.08c1.35-.08,2.15.31,1.68,1.45a3.2,3.2,0,0,1-3,1.71l-1.45.09,1.32-3.16Z" transform="translate(-60.04 -231.33)" style="fill:#fff"/><path d="M317.82,406.49q-5.62,5.48-11.23,11l3.38-.15,1.72-1.76q3.35-.14,6.7-.25l.23,1.7,3.84-.1-1.76-10.56Zm-4.37,7.38,4.11-4.09.58,3.93Z" transform="translate(-60.04 -231.33)" style="fill:#fff"/><path d="M204.09,429.89c1.52-3.82,4.65-11.64,4.69-11.73l-4,.74q-3.8,4.15-7.59,8.34l-1.69-6.53-3.83.78c-1.52,3.85-4.62,11.74-4.66,11.83l3.35-.7,3.22-8.15h0l1.22,7.24,1.5-.3q3.76-4.43,7.52-8.82l-3.16,8Z" transform="translate(-60.04 -231.33)" style="fill:#fff"/></svg>